<?xml version="1.0" encoding="UTF-8" standalone="no"?>
<!-- Created with Inkscape (http://www.inkscape.org/) -->

<svg
   width="120"
   height="28.421961"
   viewBox="0 0 31.749998 7.5199775"
   version="1.1"
   id="svg1"
   sodipodi:docname="citou_white.svg"
   xml:space="preserve"
   inkscape:version="1.3.2 (1:1.3.2+202404261509+091e20ef0f)"
   xmlns:inkscape="http://www.inkscape.org/namespaces/inkscape"
   xmlns:sodipodi="http://sodipodi.sourceforge.net/DTD/sodipodi-0.dtd"
   xmlns="http://www.w3.org/2000/svg"
   xmlns:svg="http://www.w3.org/2000/svg"><sodipodi:namedview
     id="namedview1"
     pagecolor="#505050"
     bordercolor="#eeeeee"
     borderopacity="1"
     inkscape:showpageshadow="0"
     inkscape:pageopacity="0"
     inkscape:pagecheckerboard="0"
     inkscape:deskcolor="#505050"
     inkscape:zoom="2.9694585"
     inkscape:cx="60.11197"
     inkscape:cy="14.312374"
     inkscape:window-width="1366"
     inkscape:window-height="732"
     inkscape:window-x="0"
     inkscape:window-y="0"
     inkscape:window-maximized="1"
     inkscape:current-layer="svg1" /><defs
     id="defs1" /><g
     id="g29"
     style="fill:#f9f9f9;fill-opacity:1"
     transform="matrix(0.56115523,0,0,0.56115523,-43.555862,-83.605479)"><g
       id="g28"
       transform="matrix(-45.57441,0,0,-62.404236,3184.0268,8996.3862)"
       style="fill:#f9f9f9;fill-opacity:1"><path
         style="fill:#f9f9f9;fill-opacity:1;stroke-width:0.264583"
         d="m 68.973388,141.24574 h -0.887929 a 0.12194615,0.12194615 120.90883 0 0 -0.107489,0.17954 l 0.432979,0.8081 -3e-6,-0.57999 a 0.14306573,0.14306573 134.99984 0 1 0.143066,-0.14307 h 0.561105 z"
         id="path27"
         transform="matrix(0.21671723,-5.8220026e-6,-5.8220026e-6,-0.21671723,53.154589,172.38568)" /><path
         style="fill:#f9f9f9;fill-opacity:1;stroke-width:0.264583"
         d="m 68.932136,141.24574 h -0.846677 a 0.20274911,0.20274911 134.86794 0 0 -0.202747,0.20368 l 0.0038,0.81586 0.442864,-0.63747 a 0.27359557,0.27359557 152.39437 0 1 0.224694,-0.11749 h 0.519853 z"
         id="path28"
         transform="matrix(0.12913738,-3.4692125e-6,-3.4692125e-6,-0.12913738,59.241712,159.93785)" /></g><text
       xml:space="preserve"
       style="font-style:normal;font-variant:normal;font-weight:600;font-stretch:normal;font-size:18.0322px;font-family:Roboto;-inkscape-font-specification:'Roboto Semi-Bold';fill:#f9f9f9;fill-opacity:1;stroke-width:1.50269"
       x="92.62368"
       y="162.21294"
       id="text28"><tspan
         id="tspan28"
         style="font-style:normal;font-variant:normal;font-weight:600;font-stretch:normal;font-size:18.0322px;font-family:Roboto;-inkscape-font-specification:'Roboto Semi-Bold';fill:#f9f9f9;fill-opacity:1;stroke-width:1.50269"
         x="92.62368"
         y="162.21294">Citou</tspan></text></g></svg>
