<?xml version="1.0" encoding="UTF-8" standalone="no"?>
<svg
   height="25"
   viewBox="0 -960 1000 1000"
   width="25"
   fill="#e8eaed"
   version="1.1"
   id="svg1"
   sodipodi:docname="copy.svg"
   inkscape:version="1.3.2 (1:1.3.2+202404261509+091e20ef0f)"
   xmlns:inkscape="http://www.inkscape.org/namespaces/inkscape"
   xmlns:sodipodi="http://sodipodi.sourceforge.net/DTD/sodipodi-0.dtd"
   xmlns="http://www.w3.org/2000/svg"
   xmlns:svg="http://www.w3.org/2000/svg">
  <defs
     id="defs1" />
  <sodipodi:namedview
     id="namedview1"
     pagecolor="#505050"
     bordercolor="#eeeeee"
     borderopacity="1"
     inkscape:showpageshadow="0"
     inkscape:pageopacity="0"
     inkscape:pagecheckerboard="0"
     inkscape:deskcolor="#505050"
     inkscape:zoom="15.762589"
     inkscape:cx="13.005478"
     inkscape:cy="12.466226"
     inkscape:window-width="1366"
     inkscape:window-height="732"
     inkscape:window-x="0"
     inkscape:window-y="0"
     inkscape:window-maximized="1"
     inkscape:current-layer="svg1" />
  <path
     d="m 400,-220 q -33,0 -56.5,-23.5 Q 320,-267 320,-300 v -480 q 0,-33 23.5,-56.5 Q 367,-860 400,-860 h 360 q 33,0 56.5,23.5 23.5,23.5 23.5,56.5 v 480 q 0,33 -23.5,56.5 Q 793,-220 760,-220 Z m 0,-80 H 760 V -780 H 400 Z M 240,-60 Q 207,-60 183.5,-83.5 160,-107 160,-140 v -560 h 80 v 560 h 440 v 80 z m 160,-240 v -480 z"
     id="path1" />
</svg>
